<svg width="574" height="574" viewBox="0 0 574 574" fill="none" xmlns="http://www.w3.org/2000/svg">
<rect width="574" height="574" fill="white"/>
<circle cx="287" cy="287" r="287" fill="white"/>
<path fill-rule="evenodd" clip-rule="evenodd" d="M215.003 118.532C225.986 111.469 240.976 108.612 255.145 117.807C272.021 128.759 275.527 148.872 275.652 164.574C275.748 176.649 273.906 190.109 270.995 203.816C294.373 190.151 325.412 166.979 365.669 130.031C372.574 123.694 383.051 123.236 390.484 128.948C397.918 134.66 400.149 144.882 395.77 153.161C379.911 183.136 360.513 228.173 352.95 266.299C349.116 285.625 348.818 300.841 351.694 310.923C353.049 315.671 354.917 318.608 356.847 320.477C358.677 322.248 361.477 323.959 366.345 324.849C376.817 326.763 383.751 336.784 381.832 347.231C379.913 357.679 369.868 364.596 359.395 362.682C347.898 360.58 337.903 355.733 329.996 348.079C322.19 340.522 317.383 331.166 314.611 321.45C309.235 302.605 310.887 280.212 315.128 258.832C318.18 243.445 322.833 227.366 328.313 211.614C300.066 232.703 276.58 246.046 257.098 253.025C247.597 281.064 236.272 307.888 227.885 326.138C223.448 335.793 212.005 340.031 202.327 335.605C192.649 331.179 188.4 319.763 192.837 310.108C199.142 296.388 207.056 277.862 214.452 257.934C209.548 256.917 204.878 255.203 200.513 252.703C186.93 244.925 180.276 231.839 177.614 219.294C172.529 195.323 180.098 166.142 191.386 145.692C197.097 135.348 204.955 124.994 215.003 118.532ZM226.939 220.618C227.935 217.217 228.881 213.834 229.766 210.486C234.514 192.527 237.192 176.75 237.098 164.88C237.051 158.978 236.315 154.959 235.412 152.461C235.275 152.083 235.142 151.759 235.016 151.484C232.481 153.447 228.861 157.542 225.16 164.246C216.725 179.527 212.756 199.177 215.334 211.33C216.504 216.845 218.482 218.643 219.708 219.345C220.591 219.851 222.738 220.729 226.939 220.618Z" fill="#308BF9"/>
<path d="M277.435 412.369C274.463 415.341 270.103 416.244 266.071 415.057C265.518 414.893 264.98 414.811 264.458 414.811C263.338 414.811 262.464 415.05 261.829 415.52C261.195 415.99 260.881 416.58 260.881 417.29C260.881 417.827 261.083 418.32 261.486 418.768C261.889 419.216 262.875 419.828 264.458 420.612L268.102 422.434C271.939 424.331 274.575 426.265 276.016 428.228C277.45 430.2 278.167 432.507 278.167 435.158C278.167 438.682 276.875 441.624 274.284 443.983C271.693 446.343 268.228 447.523 263.875 447.523C258.089 447.523 253.474 445.26 250.024 440.743L251.981 438.615C254.086 436.323 257.461 435.867 260.209 437.345L260.254 437.368C261.822 438.204 263.211 438.622 264.428 438.622C265.742 438.622 266.795 438.309 267.601 437.674C268.4 437.039 268.803 436.315 268.803 435.486C268.803 433.956 267.355 432.462 264.465 430.999L261.113 429.319C254.684 426.093 251.473 422.046 251.473 417.178C251.473 414.042 252.683 411.361 255.102 409.136C257.521 406.918 260.612 405.806 264.383 405.806C266.959 405.806 269.386 406.373 271.656 407.501C273.926 408.628 275.852 410.256 277.435 412.369Z" fill="#308BF9"/>
<path d="M293.496 411.204C295.296 409.405 297.237 408.053 299.328 407.157C301.418 406.261 303.651 405.806 306.033 405.806C311.207 405.806 315.613 407.762 319.234 411.675C322.856 415.587 324.67 420.605 324.67 426.735C324.67 432.865 322.796 437.584 319.055 441.557C315.314 445.529 310.879 447.515 305.749 447.515C303.464 447.515 301.336 447.105 299.373 446.291C297.409 445.477 295.445 444.148 293.504 442.296V461C288.045 461 283.625 456.58 283.625 451.122V406.829H289.128C291.547 406.829 293.504 408.785 293.504 411.204H293.496ZM303.957 414.997C300.821 414.997 298.223 416.065 296.154 418.208C294.086 420.351 293.056 423.144 293.056 426.593C293.056 430.043 294.086 432.97 296.154 435.143C298.163 437.256 300.672 438.339 303.688 438.406C306.421 438.458 309.117 437.487 311.11 435.621C313.537 433.336 314.754 430.342 314.754 426.638C314.754 423.233 313.731 420.448 311.693 418.268C309.654 416.095 307.071 415.005 303.965 415.005L303.957 414.997Z" fill="#308BF9"/>
<path d="M376.96 406.829H380.499C383.254 406.829 385.495 409.061 385.495 411.824C386.42 409.853 387.645 408.359 389.176 407.336C390.706 406.313 392.386 405.806 394.208 405.806C395.493 405.806 396.844 406.149 398.255 406.829L396.545 411.555C395.896 413.34 394.201 414.534 392.297 414.527H392.274C390.744 414.527 389.452 415.475 388.392 417.372C387.331 419.268 386.809 422.987 386.809 428.527L386.846 430.461V446.5C381.388 446.5 376.967 442.079 376.967 436.621V406.829H376.96Z" fill="#308BF9"/>
<path d="M176.85 406.829H180.389C183.144 406.829 185.384 409.061 185.384 411.824C186.31 409.853 187.535 408.359 189.065 407.336C190.596 406.313 192.276 405.806 194.098 405.806C195.382 405.806 196.734 406.149 198.145 406.829L196.435 411.555C195.785 413.34 194.09 414.534 192.186 414.527H192.164C190.633 414.527 189.342 415.475 188.281 417.372C187.221 419.268 186.698 422.987 186.698 428.527L186.736 430.461V446.5C181.277 446.5 176.857 442.079 176.857 436.621V406.829H176.85Z" fill="#308BF9"/>
<path d="M329.919 405.806C336.079 405.806 341.627 409.517 343.979 415.206L350.393 430.7L357.524 415.087C360.107 409.435 365.745 405.806 371.965 405.806L351.408 450.636C348.795 456.334 343.105 459.977 336.841 459.977L344.128 444.364C344.681 443.177 344.711 441.818 344.218 440.608L329.919 405.806Z" fill="#308BF9"/>
<path d="M244.768 429.17H213.231C213.688 431.949 214.911 434.154 216.884 435.787C218.858 437.419 221.392 438.242 224.456 438.242C226.577 438.242 228.521 437.816 230.289 436.963C233.058 435.639 236.24 435.492 239.009 436.786L241.439 437.919C241.822 438.095 241.955 438.595 241.69 438.933C239.731 441.521 237.418 443.447 234.767 444.741C231.894 446.138 228.477 446.844 224.515 446.844C218.372 446.844 213.379 444.918 209.519 441.05C205.66 437.213 203.73 432.375 203.73 426.553C203.73 420.73 205.66 415.642 209.505 411.717C213.349 407.776 218.181 405.806 223.984 405.806C230.141 405.806 235.15 407.776 239.024 411.717C242.883 415.657 244.813 420.848 244.813 427.317L244.783 429.185L244.768 429.17ZM234.944 421.45C234.295 419.274 233.014 417.495 231.114 416.142C229.199 414.775 226.989 414.099 224.47 414.099C221.731 414.099 219.33 414.863 217.267 416.392C215.971 417.348 214.763 419.039 213.659 421.45H234.944Z" fill="#308BF9"/>
<path d="M415.243 124.983V120.545H436.148V124.983H428.355V146H423.036V124.983H415.243ZM439.591 120.545H446.228L453.238 137.648H453.537L460.547 120.545H467.184V146H461.963V129.432H461.752L455.165 145.876H451.61L445.023 129.37H444.811V146H439.591V120.545Z" fill="#308BF9"/>
</svg>
